<svg xmlns="http://www.w3.org/2000/svg" width="13" height="13" viewBox="0 0 13 13">
    <g fill="none" fill-rule="evenodd">
        <circle cx="6.5" cy="6.5" r="6.5" fill="#FF2121"/>
        <path fill="#FFF" fill-rule="nonzero" d="M6.923 2.171v7.126L8.68 6.974c.173-.227.448-.227.62 0a.714.714 0 0 1 0 .82l-2.377 3.142c-.104.136-.241.227-.414.227-.172 0-.31-.09-.413-.227L3.718 7.794a.794.794 0 0 1-.138-.41c0-.136.034-.273.138-.41.172-.227.448-.227.62 0l1.758 2.323V2.17c0-.318.207-.546.413-.546.242-.046.414.228.414.546z"/>
    </g>
</svg>
