<?xml version="1.0" encoding="utf-8"?>
<!-- Generator: Adobe Illustrator 22.0.1, SVG Export Plug-In . SVG Version: 6.00 Build 0)  -->
<svg version="1.1" id="Capa_1" xmlns="http://www.w3.org/2000/svg" xmlns:xlink="http://www.w3.org/1999/xlink" x="0px" y="0px"
	 viewBox="0 0 512 512" style="enable-background:new 0 0 512 512;" xml:space="preserve">
<style type="text/css">
	.st0{fill:#DD0000;}
</style>
<g>
	<g>
		<path class="st0" d="M511.4,79.2c-1.4-21.5-6.9-50.4-17.6-61.1S454.3,2,432.7,0.5c-24.1-1.6-60.1-0.2-94.8,16.1
			c-5.7,2.7-9.1,8.5-8.6,14.8c2.7,34,16,66.3,37.7,92.3l-42.5,42.6c-22.1-25.3-38.4-55.3-47.3-87.6c-2.2-8-10.5-12.7-18.5-10.4
			c-8,2.2-12.7,10.5-10.4,18.5c10.3,37.3,29.2,71.9,55,100.9L260.8,230c-22.4-24.6-40.6-52.3-54.2-82.6c-3.4-7.6-12.3-10.9-19.8-7.5
			c-7.6,3.4-10.9,12.3-7.5,19.8c15.1,33.6,35.3,64.3,60.3,91.5l-42.4,42.5c-16.9-18.2-32.1-37.8-45.3-58.6c-4.4-7-13.7-9.1-20.7-4.6
			c-7,4.4-9.1,13.7-4.6,20.7c14.4,22.6,30.9,44,49.4,63.7l-34.3,34.3c-18.1-13.6-39.9-20.9-62.9-20.9c-28,0-54.4,10.9-74.2,30.8
			c-3.9,3.9-5.4,9.7-3.8,15c1.6,5.3,6,9.3,11.4,10.4c58.5,11.7,103.8,57,115.5,115.5c1.1,5.4,5.1,9.8,10.4,11.4
			c1.4,0.4,2.9,0.6,4.3,0.6c3.9,0,7.8-1.5,10.6-4.4c19.8-19.8,30.8-46.2,30.8-74.2c0-23-7.3-44.8-20.9-62.9l34.3-34.3
			c19.7,18.4,41.1,34.9,63.7,49.3c2.5,1.6,5.3,2.3,8,2.3c5,0,9.8-2.5,12.7-7c4.4-7,2.4-16.3-4.6-20.7
			c-20.7-13.2-40.4-28.3-58.5-45.2l42.4-42.5c27.2,24.9,57.9,45.2,91.5,60.3c2,0.9,4.1,1.3,6.1,1.3c5.7,0,11.2-3.3,13.7-8.9
			c3.4-7.6,0-16.4-7.5-19.8c-30.3-13.6-58-31.8-82.5-54.1l42.5-42.5c29,25.7,63.5,44.6,100.8,55c1.3,0.4,2.7,0.5,4,0.5
			c6.6,0,12.6-4.4,14.4-11c2.2-8-2.5-16.2-10.4-18.5c-32.3-9-62.3-25.2-87.6-47.3l42.5-42.6c26.1,21.7,58.3,35,92.3,37.7
			c0.4,0,0.8,0,1.2,0c5.8,0,11.1-3.3,13.6-8.6C511.6,139.3,513.1,103.3,511.4,79.2z M440.8,92.3c-5.9,5.9-15.4,5.9-21.2,0
			s-5.9-15.4,0-21.2c5.9-5.9,15.4-5.9,21.2,0C446.7,77,446.7,86.5,440.8,92.3z"/>
	</g>
</g>
</svg>
