<?xml version="1.0" encoding="utf-8"?>
<!-- Generator: Adobe Illustrator 22.0.1, SVG Export Plug-In . SVG Version: 6.00 Build 0)  -->
<svg version="1.1" id="Layer_1" xmlns="http://www.w3.org/2000/svg" xmlns:xlink="http://www.w3.org/1999/xlink" x="0px" y="0px"
	 viewBox="0 0 512 512" style="enable-background:new 0 0 512 512;" xml:space="preserve">
<style type="text/css">
	.st0{fill:#b3b6ca;}
	.st1{fill:#b3b6ca;}
	.st2{fill:#FFFFFF;}
	.st3{fill:#FFFFFF;}
</style>
<path class="st0" d="M256,512c-68.5,0-132.8-26.6-181.1-74.9C26.6,388.8,0,324.5,0,256c0-68.5,26.6-132.8,74.9-181.1
	C123.2,26.6,187.5,0,256,0c68.5,0,132.8,26.6,181.1,74.9C485.4,123.2,512,187.5,512,256c0,68.5-26.6,132.8-74.9,181.1l0,0l0,0
	C388.8,485.4,324.5,512,256,512z"/>
<path class="st1" d="M256,0c-1.9,0-3.8,0.2-5.7,0.3v511.4c1.9,0,3.8,0.3,5.7,0.3c68.5,0,132.8-26.6,181.1-74.9
	C485.4,388.8,512,324.5,512,256c0-68.5-26.6-132.8-74.9-181.1C388.8,26.6,324.5,0,256,0z"/>
<path class="st2" d="M161.5,367.2c-4.3,0-8.5-1.6-11.8-4.9c-6.5-6.5-6.5-17.1,0-23.6l189-189c6.5-6.5,17.1-6.5,23.6,0
	c6.5,6.5,6.5,17.1,0,23.6l-189,189C170,365.6,165.8,367.2,161.5,367.2z"/>
<path class="st3" d="M338.7,149.7l-88.3,88.3v47.2l111.9-111.9c6.5-6.5,6.5-17.1,0-23.6C355.8,143.2,345.2,143.2,338.7,149.7z"/>
<path class="st2" d="M200.3,206c-12.8,0-25.7-4.9-35.4-14.7c-9.5-9.5-14.7-22.1-14.7-35.4s5.2-26,14.7-35.4
	c9.5-9.5,22-14.7,35.4-14.7c13.4,0,26,5.2,35.4,14.7l0,0v0h0c9.5,9.5,14.7,22.1,14.7,35.4c0,13.4-5.2,26-14.7,35.4
	C226,201.1,213.1,206,200.3,206z M200.3,139.2c-4.5,0-8.7,1.7-11.8,4.9c-3.2,3.2-4.9,7.4-4.9,11.8c0,4.5,1.7,8.7,4.9,11.8
	c6.5,6.5,17.1,6.5,23.6,0c3.2-3.2,4.9-7.4,4.9-11.8c0-4.5-1.7-8.7-4.9-11.8c0,0,0,0,0,0C209,141,204.8,139.2,200.3,139.2z"/>
<path class="st3" d="M322.8,395.2c-13.4,0-26-5.2-35.4-14.7c-9.5-9.5-14.7-22-14.7-35.4s5.2-26,14.7-35.4c9.5-9.5,22-14.7,35.4-14.7
	c13.4,0,26,5.2,35.4,14.7l0,0v0h0c9.5,9.5,14.7,22.1,14.7,35.4c0,13.4-5.2,26-14.7,35.4C348.8,390,336.2,395.2,322.8,395.2z
	 M322.8,328.4c-4.5,0-8.7,1.7-11.8,4.9c-3.2,3.2-4.9,7.4-4.9,11.8c0,4.5,1.7,8.7,4.9,11.8c6.3,6.3,17.3,6.3,23.6,0
	c3.2-3.2,4.9-7.4,4.9-11.8s-1.7-8.7-4.9-11.8c0,0,0,0,0,0C331.5,330.1,327.3,328.4,322.8,328.4z"/>
</svg>
