<svg xmlns="http://www.w3.org/2000/svg" width="13" height="13" viewBox="0 0 13 13">
    <g fill="none" fill-rule="evenodd">
        <circle cx="6.5" cy="6.5" r="6.5" fill="#15BD16"/>
        <path fill="#FFF" fill-rule="nonzero" d="M6.923 10.612V3.487L8.68 5.809c.173.227.448.227.62 0a.714.714 0 0 0 0-.82L6.924 1.848c-.104-.137-.241-.228-.414-.228-.172 0-.31.091-.413.228L3.718 4.989a.794.794 0 0 0-.138.41c0 .137.034.273.138.41.172.227.448.227.62 0l1.758-2.322v7.125c0 .319.207.546.413.546.242.046.414-.227.414-.546z"/>
    </g>
</svg>
